<svg width="86" height="41" viewBox="0 0 86 41" fill="none" xmlns="http://www.w3.org/2000/svg">
<path d="M52.3865 10H7.74598L40.5659 29H85.2063L52.3865 10Z" fill="#ADB690"/>
<path d="M70.7818 32.2535L84.238 40H34.7418L-6.238e-05 20H36.5314L57.8168 32.2535H70.7818Z" fill="#B88EAC"/>
<path d="M70.0629 38.4065C69.4562 38.4065 69.1529 38.0332 69.1529 37.2865V15.2015H60.6479C59.9479 15.1549 59.5979 14.8865 59.5979 14.3965C59.5979 14.0932 59.6795 13.8832 59.8429 13.7665C60.0062 13.6265 60.2745 13.5565 60.6479 13.5565H79.5129C79.8862 13.5565 80.1545 13.6265 80.3179 13.7665C80.4812 13.8832 80.5629 14.0932 80.5629 14.3965C80.5629 14.9332 80.2129 15.2015 79.5129 15.2015H71.0079V37.2865C71.0079 38.0332 70.6929 38.4065 70.0629 38.4065Z" fill="url(#paint0_radial_404_88)"/>
<path d="M52.5432 38.4065C50.3498 38.4065 48.3315 38.0215 46.4882 37.2515C44.6682 36.4815 43.3148 35.4549 42.4282 34.1715C42.3115 33.9849 42.2532 33.8099 42.2532 33.6465C42.2532 33.3199 42.3932 33.0749 42.6732 32.9115C42.7665 32.8415 42.8948 32.8065 43.0582 32.8065C43.3848 32.8065 43.6882 32.9815 43.9682 33.3315C44.8548 34.4049 46.0332 35.2332 47.5032 35.8165C48.9732 36.3765 50.6532 36.6565 52.5432 36.6565C54.8298 36.6565 56.5798 36.2365 57.7932 35.3965C59.0298 34.5565 59.6482 33.3549 59.6482 31.7915C59.6482 30.4849 59.0765 29.4349 57.9332 28.6415C56.7898 27.8249 54.8415 27.1132 52.0882 26.5065C48.7748 25.7832 46.3948 24.8732 44.9482 23.7765C43.5015 22.6799 42.7782 21.2332 42.7782 19.4365C42.7782 17.4999 43.5598 15.9832 45.1232 14.8865C46.7098 13.7665 48.8798 13.2065 51.6332 13.2065C53.7798 13.2065 55.6932 13.5915 57.3732 14.3615C59.0765 15.1082 60.2665 16.1115 60.9432 17.3715C61.0132 17.5115 61.0482 17.6632 61.0482 17.8265C61.0482 18.1532 60.8965 18.3982 60.5932 18.5615C60.4532 18.6315 60.3132 18.6665 60.1732 18.6665C59.9865 18.6665 59.7998 18.6199 59.6132 18.5265C59.4498 18.4332 59.3215 18.3049 59.2282 18.1415C58.6215 17.1149 57.6648 16.3332 56.3582 15.7965C55.0515 15.2365 53.4765 14.9565 51.6332 14.9565C49.2765 14.9565 47.5265 15.3299 46.3832 16.0765C45.2398 16.7999 44.6682 17.9199 44.6682 19.4365C44.6682 20.3232 44.9015 21.0699 45.3682 21.6765C45.8348 22.2832 46.5932 22.8199 47.6432 23.2865C48.7165 23.7299 50.1982 24.1732 52.0882 24.6165C55.4015 25.3865 57.8048 26.3432 59.2982 27.4865C60.7915 28.6065 61.5382 30.0415 61.5382 31.7915C61.5382 33.8449 60.7332 35.4665 59.1232 36.6565C57.5132 37.8232 55.3198 38.4065 52.5432 38.4065Z" fill="url(#paint1_radial_404_88)"/>
<path d="M31.3561 38.0565C30.0728 38.0565 29.0695 37.7182 28.3461 37.0415C27.6461 36.3649 27.2961 35.4199 27.2961 34.2065V17.4065C27.2961 16.1932 27.6461 15.2482 28.3461 14.5715C29.0695 13.8949 30.0728 13.5565 31.3561 13.5565H42.2061C42.5795 13.5565 42.8478 13.6265 43.0111 13.7665C43.1745 13.8832 43.2561 14.0932 43.2561 14.3965C43.2561 14.9332 42.9061 15.2015 42.2061 15.2015H31.1461C30.5395 15.2015 30.0495 15.3999 29.6761 15.7965C29.3261 16.1699 29.1511 16.6715 29.1511 17.3015V24.7215H39.5461C39.9195 24.7215 40.1878 24.7915 40.3511 24.9315C40.5145 25.0482 40.5961 25.2582 40.5961 25.5615C40.5961 26.0982 40.2461 26.3665 39.5461 26.3665H29.1511V34.3115C29.1511 34.9415 29.3261 35.4549 29.6761 35.8515C30.0495 36.2249 30.5395 36.4115 31.1461 36.4115H42.9761C43.3495 36.4115 43.6178 36.4815 43.7811 36.6215C43.9445 36.7382 44.0261 36.9482 44.0261 37.2515C44.0261 37.7882 43.6761 38.0565 42.9761 38.0565H31.3561Z" fill="url(#paint2_radial_404_88)"/>
<path d="M10.8676 37.0283C9.58427 37.0283 8.58094 36.6899 7.85761 36.0133C7.15761 35.3366 6.80761 34.3916 6.80761 33.1783V16.3783C6.80761 15.1649 7.15761 14.2199 7.85761 13.5433C8.58094 12.8666 9.58427 12.5283 10.8676 12.5283H19.2676C21.5309 12.5283 23.2693 13.0999 24.4826 14.2433C25.7193 15.3866 26.3376 16.9966 26.3376 19.0733C26.3376 20.2399 26.0343 21.2666 25.4276 22.1533C24.8209 23.0166 23.9343 23.6933 22.7676 24.1833V24.2533C24.0043 24.6966 24.9726 25.4316 25.6726 26.4583C26.3959 27.4616 26.7576 28.6399 26.7576 29.9933C26.7576 32.1866 26.1276 33.9133 24.8676 35.1733C23.6076 36.4099 21.8809 37.0283 19.6876 37.0283H10.8676ZM19.6876 23.4483C21.1109 23.4483 22.2543 23.0516 23.1176 22.2583C24.0043 21.4416 24.4476 20.3799 24.4476 19.0733C24.4476 17.4633 24.0043 16.2499 23.1176 15.4333C22.2543 14.5933 20.9709 14.1733 19.2676 14.1733H10.6576C10.0743 14.1733 9.59594 14.3716 9.22261 14.7683C8.84927 15.1649 8.66261 15.6666 8.66261 16.2733V23.4483H19.6876ZM19.6876 35.3833C21.3909 35.3833 22.6743 34.9283 23.5376 34.0183C24.4243 33.0849 24.8676 31.7433 24.8676 29.9933C24.8676 28.4999 24.3893 27.3099 23.4326 26.4233C22.4993 25.5366 21.2276 25.0933 19.6176 25.0933H8.66261V33.2833C8.66261 33.8899 8.84927 34.3916 9.22261 34.7883C9.59594 35.1849 10.0743 35.3833 10.6576 35.3833H19.6876Z" fill="url(#paint3_radial_404_88)"/>
<path d="M68.9817 37.35C68.375 37.35 68.0717 36.9767 68.0717 36.23V14.145H59.5667C58.8667 14.0983 58.5167 13.83 58.5167 13.34C58.5167 13.0367 58.5984 12.8267 58.7617 12.71C58.925 12.57 59.1934 12.5 59.5667 12.5H78.4317C78.805 12.5 79.0734 12.57 79.2367 12.71C79.4 12.8267 79.4817 13.0367 79.4817 13.34C79.4817 13.8767 79.1317 14.145 78.4317 14.145H69.9267V36.23C69.9267 36.9767 69.6117 37.35 68.9817 37.35Z" fill="black"/>
<path d="M51.1567 37.35C48.9634 37.35 46.945 36.965 45.1017 36.195C43.2817 35.425 41.9284 34.3983 41.0417 33.115C40.925 32.9283 40.8667 32.7533 40.8667 32.59C40.8667 32.2633 41.0067 32.0183 41.2867 31.855C41.38 31.785 41.5084 31.75 41.6717 31.75C41.9984 31.75 42.3017 31.925 42.5817 32.275C43.4684 33.3483 44.6467 34.1767 46.1167 34.76C47.5867 35.32 49.2667 35.6 51.1567 35.6C53.4434 35.6 55.1934 35.18 56.4067 34.34C57.6434 33.5 58.2617 32.2983 58.2617 30.735C58.2617 29.4283 57.69 28.3783 56.5467 27.585C55.4034 26.7683 53.455 26.0567 50.7017 25.45C47.3884 24.7267 45.0084 23.8167 43.5617 22.72C42.115 21.6233 41.3917 20.1767 41.3917 18.38C41.3917 16.4433 42.1734 14.9267 43.7367 13.83C45.3234 12.71 47.4934 12.15 50.2467 12.15C52.3934 12.15 54.3067 12.535 55.9867 13.305C57.69 14.0517 58.88 15.055 59.5567 16.315C59.6267 16.455 59.6617 16.6067 59.6617 16.77C59.6617 17.0967 59.51 17.3417 59.2067 17.505C59.0667 17.575 58.9267 17.61 58.7867 17.61C58.6 17.61 58.4134 17.5633 58.2267 17.47C58.0634 17.3767 57.935 17.2483 57.8417 17.085C57.235 16.0583 56.2784 15.2767 54.9717 14.74C53.665 14.18 52.09 13.9 50.2467 13.9C47.89 13.9 46.14 14.2733 44.9967 15.02C43.8534 15.7433 43.2817 16.8633 43.2817 18.38C43.2817 19.2667 43.515 20.0133 43.9817 20.62C44.4484 21.2267 45.2067 21.7633 46.2567 22.23C47.33 22.6733 48.8117 23.1167 50.7017 23.56C54.015 24.33 56.4184 25.2867 57.9117 26.43C59.405 27.55 60.1517 28.985 60.1517 30.735C60.1517 32.7883 59.3467 34.41 57.7367 35.6C56.1267 36.7667 53.9334 37.35 51.1567 37.35Z" fill="black"/>
<path d="M30.8017 37C29.5184 37 28.515 36.6617 27.7917 35.985C27.0917 35.3083 26.7417 34.3633 26.7417 33.15V16.35C26.7417 15.1367 27.0917 14.1917 27.7917 13.515C28.515 12.8383 29.5184 12.5 30.8017 12.5H41.6517C42.025 12.5 42.2934 12.57 42.4567 12.71C42.62 12.8267 42.7017 13.0367 42.7017 13.34C42.7017 13.8767 42.3517 14.145 41.6517 14.145H30.5917C29.985 14.145 29.495 14.3433 29.1217 14.74C28.7717 15.1133 28.5967 15.615 28.5967 16.245V23.665H38.9917C39.365 23.665 39.6334 23.735 39.7967 23.875C39.96 23.9917 40.0417 24.2017 40.0417 24.505C40.0417 25.0417 39.6917 25.31 38.9917 25.31H28.5967V33.255C28.5967 33.885 28.7717 34.3983 29.1217 34.795C29.495 35.1683 29.985 35.355 30.5917 35.355H42.4217C42.795 35.355 43.0634 35.425 43.2267 35.565C43.39 35.6817 43.4717 35.8917 43.4717 36.195C43.4717 36.7317 43.1217 37 42.4217 37H30.8017Z" fill="black"/>
<path d="M9.80169 36C8.51836 36 7.51502 35.6617 6.79169 34.985C6.09169 34.3083 5.74169 33.3633 5.74169 32.15V15.35C5.74169 14.1367 6.09169 13.1917 6.79169 12.515C7.51502 11.8383 8.51836 11.5 9.80169 11.5H18.2017C20.465 11.5 22.2034 12.0717 23.4167 13.215C24.6534 14.3583 25.2717 15.9683 25.2717 18.045C25.2717 19.2117 24.9684 20.2383 24.3617 21.125C23.755 21.9883 22.8684 22.665 21.7017 23.155V23.225C22.9384 23.6683 23.9067 24.4033 24.6067 25.43C25.33 26.4333 25.6917 27.6117 25.6917 28.965C25.6917 31.1583 25.0617 32.885 23.8017 34.145C22.5417 35.3817 20.815 36 18.6217 36H9.80169ZM18.6217 22.42C20.045 22.42 21.1884 22.0233 22.0517 21.23C22.9384 20.4133 23.3817 19.3517 23.3817 18.045C23.3817 16.435 22.9384 15.2217 22.0517 14.405C21.1884 13.565 19.905 13.145 18.2017 13.145H9.59169C9.00836 13.145 8.53002 13.3433 8.15669 13.74C7.78336 14.1367 7.59669 14.6383 7.59669 15.245V22.42H18.6217ZM18.6217 34.355C20.325 34.355 21.6084 33.9 22.4717 32.99C23.3584 32.0567 23.8017 30.715 23.8017 28.965C23.8017 27.4717 23.3234 26.2817 22.3667 25.395C21.4334 24.5083 20.1617 24.065 18.5517 24.065H7.59669V32.255C7.59669 32.8617 7.78336 33.3633 8.15669 33.76C8.53002 34.1567 9.00836 34.355 9.59169 34.355H18.6217Z" fill="black"/>
<defs>
<radialGradient id="paint0_radial_404_88" cx="0" cy="0" r="1" gradientUnits="userSpaceOnUse" gradientTransform="translate(59.9549 14.3958) rotate(55.2253) scale(30.0444 19.3379)">
<stop offset="0.495192" stop-color="#B88EAC"/>
<stop offset="1" stop-color="#ADB690"/>
</radialGradient>
<radialGradient id="paint1_radial_404_88" cx="0" cy="0" r="1" gradientUnits="userSpaceOnUse" gradientTransform="translate(42.3533 14.3958) rotate(54.0746) scale(30.4755 19.8932)">
<stop offset="0.495192" stop-color="#B88EAC"/>
<stop offset="1" stop-color="#ADB690"/>
</radialGradient>
<radialGradient id="paint2_radial_404_88" cx="0" cy="0" r="1" gradientUnits="userSpaceOnUse" gradientTransform="translate(26.1487 14.3958) rotate(58.8766) scale(28.8281 17.525)">
<stop offset="0.495192" stop-color="#B88EAC"/>
<stop offset="1" stop-color="#ADB690"/>
</radialGradient>
<radialGradient id="paint3_radial_404_88" cx="0" cy="0" r="1" gradientUnits="userSpaceOnUse" gradientTransform="translate(11.3825 35.5) rotate(-63.2311) scale(25.3683 13.4137)">
<stop offset="0.134615" stop-color="#B88EAC"/>
<stop offset="0.322115" stop-color="#ADB690"/>
<stop offset="0.730769" stop-color="#ADB690"/>
<stop offset="1" stop-color="#B88EAC"/>
</radialGradient>
</defs>
</svg>
