<svg viewBox="0 0 1920 1080" width="100%" height="100%" preserveAspectRatio="none" version="1.1" xmlns="http://www.w3.org/2000/svg" xmlns:xlink="http://www.w3.org/1999/xlink">
    <path fill="#FFFFFF" fill-opacity="0.05" d="M0,741.958 C117.510608,798.894427 269.124942,827.362576 454.843,827.362576 C733.42085,827.362576 849.112181,719.729219 1125.99483,640.119569 C1402.87748,560.509919 1548.59277,824.457007 1920,759.503 L1920,1080 L0,1080 L0,741.958 Z"></path>
    <path fill="#FFFFFF" fill-opacity="0.05" d="M0,873.157 C212.998532,803.647217 303.001605,848.43779 686.63465,848.43779 C1070.26769,848.43779 1297.05047,728.870915 1552.51282,718.729375 C1723.52117,711.954514 1838.02937,737.367944 1920,787.139583 L1920,1080 L0,1080 L0,873.157 Z"></path>
    <path fill="#FFFFFF" fill-opacity="0.05" d="M1920,891.982 C1588.1941,973.23834 1426.82082,887.126297 1067.18963,887.126297 C707.558432,887.126297 476.039687,1017.3156 226.269791,984.805 C93.790193,967.44467 31.2871351,950.084339 0,932.724009 L0,1080 L1920,1080 L1920,891.982 Z"></path>
    <path fill="#FFFFFF" fill-opacity="0.05" d="M0,941.512 C58.6792252,946.312002 116.264239,948.712003 172.755042,948.712003 C399.51018,948.712003 456.269309,892.832 686.63465,892.832 C916.999991,892.832 1219.12318,989.087344 1462.63637,955 C1625.14091,932.255219 1783.13669,894.889552 1920,844.198971 L1920,1080 L0,1080 L0,941.512 Z"></path>
</svg>
