<svg width="47" height="37" viewBox="0 0 47 37" fill="none" xmlns="http://www.w3.org/2000/svg">
  <g clip-path="url(#clip0_404_2)">
    <path d="M18.219 2H43L24.7809 22H0L18.219 2Z" fill="#ADB690" />
    <path d="M8.34807 24.8661L1 33H28.0285L47 12H27.0512L15.4279 24.8661H8.34807Z" fill="#B88EAC" />
    <path
      d="M8.07 27C6.78667 27 5.78333 26.6617 5.06 25.985C4.36 25.3083 4.01 24.3633 4.01 23.15V6.35C4.01 5.13667 4.36 4.19167 5.06 3.515C5.78333 2.83833 6.78667 2.5 8.07 2.5H16.47C18.7333 2.5 20.4717 3.07167 21.685 4.215C22.9217 5.35833 23.54 6.96833 23.54 9.045C23.54 10.2117 23.2367 11.2383 22.63 12.125C22.0233 12.9883 21.1367 13.665 19.97 14.155V14.225C21.2067 14.6683 22.175 15.4033 22.875 16.43C23.5983 17.4333 23.96 18.6117 23.96 19.965C23.96 22.1583 23.33 23.885 22.07 25.145C20.81 26.3817 19.0833 27 16.89 27H8.07ZM16.89 13.42C18.3133 13.42 19.4567 13.0233 20.32 12.23C21.2067 11.4133 21.65 10.3517 21.65 9.045C21.65 7.435 21.2067 6.22167 20.32 5.405C19.4567 4.565 18.1733 4.145 16.47 4.145H7.86C7.27667 4.145 6.79833 4.34333 6.425 4.74C6.05167 5.13667 5.865 5.63833 5.865 6.245V13.42H16.89ZM16.89 25.355C18.5933 25.355 19.8767 24.9 20.74 23.99C21.6267 23.0567 22.07 21.715 22.07 19.965C22.07 18.4717 21.5917 17.2817 20.635 16.395C19.7017 15.5083 18.43 15.065 16.82 15.065H5.865V23.255C5.865 23.8617 6.05167 24.3633 6.425 24.76C6.79833 25.1567 7.27667 25.355 7.86 25.355H16.89Z"
      fill="url(#paint0_radial_404_2)"
    />
    <path
      d="M8.07 26C6.78667 26 5.78333 25.6617 5.06 24.985C4.36 24.3083 4.01 23.3633 4.01 22.15V5.35C4.01 4.13667 4.36 3.19167 5.06 2.515C5.78333 1.83833 6.78667 1.5 8.07 1.5H16.47C18.7333 1.5 20.4717 2.07167 21.685 3.215C22.9217 4.35833 23.54 5.96833 23.54 8.045C23.54 9.21167 23.2367 10.2383 22.63 11.125C22.0233 11.9883 21.1367 12.665 19.97 13.155V13.225C21.2067 13.6683 22.175 14.4033 22.875 15.43C23.5983 16.4333 23.96 17.6117 23.96 18.965C23.96 21.1583 23.33 22.885 22.07 24.145C20.81 25.3817 19.0833 26 16.89 26H8.07ZM16.89 12.42C18.3133 12.42 19.4567 12.0233 20.32 11.23C21.2067 10.4133 21.65 9.35167 21.65 8.045C21.65 6.435 21.2067 5.22167 20.32 4.405C19.4567 3.565 18.1733 3.145 16.47 3.145H7.86C7.27667 3.145 6.79833 3.34333 6.425 3.74C6.05167 4.13667 5.865 4.63833 5.865 5.245V12.42H16.89ZM16.89 24.355C18.5933 24.355 19.8767 23.9 20.74 22.99C21.6267 22.0567 22.07 20.715 22.07 18.965C22.07 17.4717 21.5917 16.2817 20.635 15.395C19.7017 14.5083 18.43 14.065 16.82 14.065H5.865V22.255C5.865 22.8617 6.05167 23.3633 6.425 23.76C6.79833 24.1567 7.27667 24.355 7.86 24.355H16.89Z"
      fill="black"
    />
    <path
      d="M27.07 36C25.7867 36 24.7833 35.6617 24.06 34.985C23.36 34.3083 23.01 33.3633 23.01 32.15V15.35C23.01 14.1367 23.36 13.1917 24.06 12.515C24.7833 11.8383 25.7867 11.5 27.07 11.5H35.47C37.7333 11.5 39.4717 12.0717 40.685 13.215C41.9217 14.3583 42.54 15.9683 42.54 18.045C42.54 19.2117 42.2367 20.2383 41.63 21.125C41.0233 21.9883 40.1367 22.665 38.97 23.155V23.225C40.2067 23.6683 41.175 24.4033 41.875 25.43C42.5983 26.4333 42.96 27.6117 42.96 28.965C42.96 31.1583 42.33 32.885 41.07 34.145C39.81 35.3817 38.0833 36 35.89 36H27.07ZM35.89 22.42C37.3133 22.42 38.4567 22.0233 39.32 21.23C40.2067 20.4133 40.65 19.3517 40.65 18.045C40.65 16.435 40.2067 15.2217 39.32 14.405C38.4567 13.565 37.1733 13.145 35.47 13.145H26.86C26.2767 13.145 25.7983 13.3433 25.425 13.74C25.0517 14.1367 24.865 14.6383 24.865 15.245V22.42H35.89ZM35.89 34.355C37.5933 34.355 38.8767 33.9 39.74 32.99C40.6267 32.0567 41.07 30.715 41.07 28.965C41.07 27.4717 40.5917 26.2817 39.635 25.395C38.7017 24.5083 37.43 24.065 35.82 24.065H24.865V32.255C24.865 32.8617 25.0517 33.3633 25.425 33.76C25.7983 34.1567 26.2767 34.355 26.86 34.355H35.89Z"
      fill="url(#paint1_radial_404_2)"
    />
    <path
      d="M27.07 35C25.7867 35 24.7833 34.6617 24.06 33.985C23.36 33.3083 23.01 32.3633 23.01 31.15V14.35C23.01 13.1367 23.36 12.1917 24.06 11.515C24.7833 10.8383 25.7867 10.5 27.07 10.5H35.47C37.7333 10.5 39.4717 11.0717 40.685 12.215C41.9217 13.3583 42.54 14.9683 42.54 17.045C42.54 18.2117 42.2367 19.2383 41.63 20.125C41.0233 20.9883 40.1367 21.665 38.97 22.155V22.225C40.2067 22.6683 41.175 23.4033 41.875 24.43C42.5983 25.4333 42.96 26.6117 42.96 27.965C42.96 30.1583 42.33 31.885 41.07 33.145C39.81 34.3817 38.0833 35 35.89 35H27.07ZM35.89 21.42C37.3133 21.42 38.4567 21.0233 39.32 20.23C40.2067 19.4133 40.65 18.3517 40.65 17.045C40.65 15.435 40.2067 14.2217 39.32 13.405C38.4567 12.565 37.1733 12.145 35.47 12.145H26.86C26.2767 12.145 25.7983 12.3433 25.425 12.74C25.0517 13.1367 24.865 13.6383 24.865 14.245V21.42H35.89ZM35.89 33.355C37.5933 33.355 38.8767 32.9 39.74 31.99C40.6267 31.0567 41.07 29.715 41.07 27.965C41.07 26.4717 40.5917 25.2817 39.635 24.395C38.7017 23.5083 37.43 23.065 35.82 23.065H24.865V31.255C24.865 31.8617 25.0517 32.3633 25.425 32.76C25.7983 33.1567 26.2767 33.355 26.86 33.355H35.89Z"
      fill="black"
    />
  </g>
  <defs>
    <radialGradient
      id="paint0_radial_404_2"
      cx="0"
      cy="0"
      r="1"
      gradientUnits="userSpaceOnUse"
      gradientTransform="translate(3.5 3) rotate(50.1944) scale(31.241 21.1088)"
    >
      <stop offset="0.495192" stop-color="#B88EAC" />
      <stop offset="1" stop-color="#ADB690" />
    </radialGradient>
    <radialGradient
      id="paint1_radial_404_2"
      cx="0"
      cy="0"
      r="1"
      gradientUnits="userSpaceOnUse"
      gradientTransform="translate(22.5 12) rotate(50.1944) scale(31.241 21.1088)"
    >
      <stop offset="0.644231" stop-color="#ADB690" />
      <stop offset="0.899038" stop-color="#B88EAC" />
    </radialGradient>
    <clipPath id="clip0_404_2">
      <rect width="47" height="37" fill="white" />
    </clipPath>
  </defs>
</svg>
